<svg width="84" height="84" viewBox="0 0 84 84" fill="none" xmlns="http://www.w3.org/2000/svg">
<rect x="0.5" y="0.5" width="83" height="83" rx="41.5" fill="white"/>
<rect x="0.5" y="0.5" width="83" height="83" rx="41.5" stroke="#AC9FBB"/>
<path fill-rule="evenodd" clip-rule="evenodd" d="M35.9286 28C33.9167 28 32.2857 29.6351 32.2857 31.6522H28.6429C26.631 31.6522 25 33.2873 25 35.3043V52.3478C25 54.3649 26.631 56 28.6429 56H55.3571C57.369 56 59 54.3649 59 52.3478V35.3043C59 33.2873 57.369 31.6522 55.3571 31.6522H51.7143C51.7143 29.6351 50.0833 28 48.0714 28H35.9286ZM42 52.3478C46.6944 52.3478 50.5 48.805 50.5 44.4348C50.5 40.0645 46.6944 36.5217 42 36.5217C37.3056 36.5217 33.5 40.0645 33.5 44.4348C33.5 48.805 37.3056 52.3478 42 52.3478Z" fill="#59656F"/>
<path d="M48.0714 44.4348C48.0714 47.4603 45.3532 49.913 42 49.913C38.6468 49.913 35.9286 47.4603 35.9286 44.4348C35.9286 41.4092 38.6468 38.9565 42 38.9565C45.3532 38.9565 48.0714 41.4092 48.0714 44.4348Z" fill="#59656F"/>
</svg>
