<svg width="84" height="84" viewBox="0 0 84 84" fill="none" xmlns="http://www.w3.org/2000/svg">
<rect x="0.5" y="0.5" width="83" height="83" rx="41.5" fill="none"/>
<rect x="0.5" y="0.5" width="83" height="83" rx="41.5" stroke="#AC9FBB"/>
<path d="M42 41C44.7614 41 47 38.7614 47 36C47 33.2386 44.7614 31 42 31C39.2386 31 37 33.2386 37 36C37 38.7614 39.2386 41 42 41Z" fill="#59656F"/>
<path fill-rule="evenodd" clip-rule="evenodd" d="M53 37C53 44.5744 46.4261 53.7923 42.6146 59.1368L42.6136 59.1382C42.3998 59.438 42.1947 59.7256 42 60C38.3333 55.1667 31 43.8 31 37C31 28.5 36 25 42 25C48 25 53 29.5 53 37ZM49 36C49 39.866 45.866 43 42 43C38.134 43 35 39.866 35 36C35 32.134 38.134 29 42 29C45.866 29 49 32.134 49 36Z" fill="#59656F"/>
</svg>
